<svg version="1.0" xmlns="http://www.w3.org/2000/svg"
 width="300.000000pt" height="300.000000pt" viewBox="0 0 300.000000 300.000000"
 preserveAspectRatio="xMidYMid meet" aria-label="Logo">
 <title>Logo</title>
<g transform="translate(0.000000,300.000000) scale(0.100000,-0.100000)" stroke="none">
<path d="M1321 2679 c-110 -21 -248 -83 -386 -174 -92 -60 -185 -141 -185
-160 0 -8 24 -60 52 -117 40 -77 70 -120 119 -170 62 -64 69 -68 111 -68 32 0
50 6 63 20 29 32 28 17 -4 -46 -70 -143 -123 -371 -137 -594 l-7 -115 -41 -46
c-88 -98 -143 -252 -153 -429 l-6 -105 -39 -18 c-41 -20 -68 -60 -68 -102 0
-38 16 -62 52 -81 31 -16 115 -13 346 12 l52 6 0 -36 c0 -138 225 -78 341 91
27 38 34 43 69 43 34 0 42 -5 75 -50 96 -131 254 -200 313 -137 13 14 22 36
22 56 l0 33 78 -7 c42 -3 120 -11 174 -16 114 -12 140 -7 173 33 44 52 24 122
-43 155 l-39 18 -6 100 c-11 179 -66 337 -151 432 l-44 49 -11 144 c-18 225
-67 432 -132 562 -36 71 -36 75 -3 49 42 -33 84 -27 142 18 66 53 152 182 188
284 l14 40 -50 49 c-109 105 -358 241 -497 272 -79 17 -304 20 -382 5z m431
-62 c118 -38 304 -145 407 -235 l44 -39 -19 -47 c-30 -73 -125 -205 -171 -239
-46 -33 -84 -32 -103 3 -14 27 -29 107 -30 166 -1 51 33 191 50 208 15 15 12
53 -6 60 -9 3 -30 6 -47 6 -28 0 -35 6 -56 44 -12 25 -30 47 -37 50 -22 9 -28
-21 -10 -49 26 -40 21 -45 -56 -45 -46 -1 -94 -8 -128 -20 -70 -25 -112 -25
-183 0 -37 13 -82 20 -133 20 l-76 0 21 34 c26 41 26 56 2 56 -11 0 -27 -16
-42 -45 -20 -38 -29 -45 -54 -45 -74 0 -79 -8 -50 -75 38 -89 51 -190 35 -283
-19 -116 -64 -140 -138 -77 -49 42 -132 164 -158 231 l-18 47 40 34 c139 120
351 232 489 259 113 22 331 12 427 -19z m-354 -164 c59 -44 28 -168 -52 -204
-48 -22 -134 -25 -161 -5 -16 12 -17 23 -12 102 10 144 4 137 109 132 69 -3
94 -9 116 -25z m421 -36 c6 -35 11 -87 11 -115 0 -42 -4 -53 -22 -63 -29 -15
-141 -6 -173 15 -58 38 -86 158 -45 194 29 24 54 30 141 31 l77 1 11 -63z
m-699 43 c0 -5 -9 -10 -20 -10 -11 0 -20 5 -20 10 0 6 9 10 20 10 11 0 20 -4
20 -10z m800 0 c0 -5 -9 -10 -20 -10 -11 0 -20 5 -20 10 0 6 9 10 20 10 11 0
20 -4 20 -10z m-787 -76 l-7 -59 -8 37 c-4 22 -3 49 2 64 16 41 21 23 13 -42z
m746 -2 c-1 -57 -1 -57 -10 -17 -11 56 -11 87 1 80 6 -3 9 -32 9 -63z m-333
-38 c32 -79 76 -119 150 -134 50 -11 66 -10 102 2 l42 16 0 -50 c0 -27 -7 -63
-17 -81 l-16 -32 -10 25 c-16 44 -24 55 -38 55 -9 0 -13 -9 -11 -25 10 -80 5
-119 -22 -160 -38 -57 -80 -76 -148 -64 -43 7 -54 13 -56 30 -2 16 5 25 28 34
66 27 100 109 70 165 -28 52 -137 67 -212 29 -73 -37 -48 -152 45 -201 55 -28
20 -60 -68 -62 -53 -1 -107 42 -131 105 -15 40 -16 53 -5 92 8 31 9 48 1 56
-14 14 -36 -10 -48 -54 l-9 -35 -19 40 c-14 28 -18 55 -16 87 l4 46 36 -15
c39 -16 102 -11 159 12 39 16 89 84 104 139 20 75 49 69 85 -20z m27 -232 c34
-29 18 -78 -37 -112 -33 -20 -37 -20 -65 -6 -57 30 -78 88 -43 119 32 29 111
28 145 -1z m-360 -131 c13 -61 128 -152 172 -135 9 4 15 0 15 -10 0 -28 39
-40 123 -37 26 1 46 9 63 26 15 15 36 25 53 25 45 0 109 54 137 115 14 29 31
56 40 59 30 12 122 -233 161 -429 28 -141 25 -494 -6 -635 -28 -130 -73 -268
-111 -339 l-29 -53 19 -39 c33 -64 22 -109 -25 -109 -41 0 -143 60 -190 112
l-45 50 0 323 c0 270 -2 325 -15 335 -32 27 -35 2 -28 -305 l6 -305 -41 0
c-72 0 -68 -21 -61 303 5 292 2 330 -27 306 -11 -9 -14 -64 -15 -268 0 -141
-4 -291 -7 -333 -7 -70 -11 -81 -42 -113 -75 -77 -180 -124 -215 -95 -20 17
-19 58 3 99 l18 34 -32 67 c-42 84 -78 196 -106 324 -20 88 -22 131 -22 336 0
206 2 248 22 336 24 113 81 282 118 356 22 43 26 47 43 36 11 -6 22 -23 24
-37z m337 -121 c24 0 -2 -18 -30 -20 -47 -4 -80 0 -80 9 0 11 46 20 75 15 11
-2 27 -4 35 -4z m-560 -932 c23 -109 69 -246 106 -319 33 -66 23 -75 -96 -83
-52 -4 -130 -11 -174 -17 -92 -12 -133 -1 -142 38 -8 32 30 72 77 82 l33 7 1
109 c2 164 45 307 126 415 l34 45 7 -88 c3 -49 16 -134 28 -189z m1140 147
c48 -96 72 -205 73 -330 l2 -109 33 -7 c38 -8 82 -45 82 -69 0 -25 -36 -53
-67 -53 -16 0 -101 6 -191 13 -194 16 -195 17 -153 106 63 133 116 337 128
488 l6 90 29 -35 c16 -19 42 -61 58 -94z"/>
<path d="M1277 2420 c-38 -12 -57 -29 -57 -51 0 -23 13 -24 45 -3 23 15 55 16
130 2 34 -5 23 25 -15 44 -38 19 -59 21 -103 8z"/>
<path d="M1613 2416 c-31 -14 -43 -39 -24 -50 4 -3 27 2 49 10 39 16 43 15 84
-5 54 -26 58 -26 58 -1 0 44 -106 73 -167 46z"/>
</g>
</svg>
