<?xml version="1.0" standalone="no"?>
<!DOCTYPE svg PUBLIC "-//W3C//DTD SVG 20010904//EN"
 "http://www.w3.org/TR/2001/REC-SVG-20010904/DTD/svg10.dtd">
<svg version="1.0" xmlns="http://www.w3.org/2000/svg"
 width="1563.000000pt" height="1563.000000pt" viewBox="0 0 1563.000000 1563.000000"
 preserveAspectRatio="xMidYMid meet">
<metadata>
Created by potrace 1.14, written by Peter Selinger 2001-2017
</metadata>
<g transform="translate(0.000000,1563.000000) scale(0.100000,-0.100000)"
fill="#000000" stroke="none">
<path d="M7415 14060 c-586 -27 -1100 -167 -1689 -462 -570 -285 -1160 -664
-1472 -946 -152 -137 -311 -296 -334 -335 -30 -48 -25 -100 26 -247 158 -458
524 -1054 830 -1351 182 -176 330 -287 439 -330 83 -32 251 -33 339 0 72 26
146 71 207 128 l46 43 -77 -154 c-369 -737 -638 -1744 -739 -2766 -30 -304
-41 -481 -48 -817 l-6 -301 -66 -48 c-413 -300 -784 -1051 -925 -1869 -53
-310 -60 -407 -61 -775 l0 -344 -79 -18 c-262 -60 -474 -271 -508 -508 -36
-243 100 -456 348 -546 117 -43 215 -49 419 -25 177 20 1479 131 1543 131 l32
0 0 -52 c0 -94 19 -222 41 -282 45 -120 162 -210 306 -237 83 -16 240 -4 351
26 297 80 585 258 853 525 146 146 256 286 358 455 61 100 66 106 90 99 14 -5
108 -9 208 -9 l183 -1 60 -98 c33 -53 82 -125 110 -159 28 -34 84 -102 124
-152 237 -292 623 -558 944 -650 256 -73 496 -38 605 89 74 86 97 154 108 315
5 74 11 136 13 139 9 8 1392 -108 1596 -134 200 -26 339 -7 475 64 295 155
361 516 142 783 -90 110 -245 205 -381 233 -37 8 -71 18 -74 21 -4 4 -7 158
-8 343 0 341 -8 447 -49 708 -137 851 -500 1606 -931 1931 l-71 53 -7 298 c-7
320 -18 518 -41 762 -99 1035 -356 2020 -721 2768 l-104 214 58 -54 c113 -104
245 -153 392 -146 104 6 180 32 273 94 131 87 352 291 481 444 112 134 423
617 464 722 8 21 21 38 28 38 7 0 18 9 24 19 13 25 13 34 0 26 -5 -3 7 29 26
72 85 185 164 412 164 470 0 54 -27 88 -191 248 -242 235 -375 344 -640 522
-438 294 -1049 625 -1435 777 -354 139 -764 230 -1159 256 -175 11 -637 11
-890 0z m980 -240 c343 -29 779 -146 1145 -307 481 -212 1228 -656 1545 -918
142 -117 395 -357 395 -375 0 -25 -53 -174 -100 -280 -116 -264 -336 -622
-525 -855 -79 -98 -287 -305 -375 -375 -89 -70 -163 -100 -245 -100 -262 0
-369 261 -430 1053 -14 174 -14 201 -1 225 60 110 118 314 176 620 26 136 42
166 118 215 l42 27 0 134 0 135 -57 6 c-32 4 -83 10 -113 15 -30 5 -100 12
-155 15 -55 3 -121 8 -146 11 l-47 6 -27 66 c-74 179 -196 375 -258 412 -63
39 -119 18 -147 -54 -16 -44 -5 -76 87 -253 l85 -163 -254 0 c-267 0 -362 -9
-594 -56 -147 -29 -249 -61 -330 -102 -104 -53 -161 -62 -374 -62 -208 0 -271
10 -357 55 -100 54 -253 98 -443 129 -208 33 -248 36 -484 36 -135 0 -246 3
-246 7 0 3 35 74 79 157 86 167 97 199 81 242 -20 51 -49 74 -94 74 -36 0 -46
-6 -96 -59 -61 -65 -127 -176 -195 -327 l-45 -99 -47 -7 c-27 -4 -106 -12
-178 -17 -135 -11 -297 -30 -304 -36 -2 -2 0 -65 4 -140 6 -113 10 -138 24
-142 34 -12 82 -56 100 -92 11 -21 27 -78 36 -127 50 -281 102 -469 168 -615
l26 -56 -14 -189 c-61 -783 -172 -1054 -431 -1054 -112 0 -212 61 -406 248
-226 218 -414 473 -617 839 -124 224 -236 506 -215 541 18 29 303 290 414 379
259 208 785 534 1215 753 586 298 986 416 1585 465 194 16 809 13 1025 -5z
m-1335 -904 c233 -52 339 -143 369 -317 44 -256 -49 -546 -236 -738 -69 -71
-134 -110 -245 -149 -144 -50 -245 -66 -423 -66 -127 0 -174 4 -225 18 -74 22
-162 64 -203 98 l-28 23 16 265 c24 416 52 623 108 802 l23 73 69 6 c39 4 212
5 385 4 252 -2 330 -6 390 -19z m2342 9 c33 -14 86 -238 113 -475 8 -69 19
-213 25 -320 5 -107 13 -227 16 -266 l6 -70 -35 -31 c-77 -68 -205 -110 -362
-119 -153 -10 -295 9 -482 65 -205 61 -364 233 -454 492 -32 91 -33 99 -33
259 -1 139 2 173 18 215 36 95 99 154 213 199 63 24 185 53 258 60 70 7 699
-1 717 -9z m-3602 -65 c0 -19 -7 -20 -95 -20 -88 0 -95 1 -95 20 0 19 7 20 95
20 88 0 95 -1 95 -20z m4220 0 c0 -19 -7 -20 -100 -20 -93 0 -100 1 -100 20 0
19 7 20 100 20 93 0 100 -1 100 -20z m-4109 -181 c-23 -129 -51 -379 -52 -466
0 -79 -12 -46 -34 93 -24 158 -18 322 14 388 24 48 78 112 87 103 3 -2 -4 -56
-15 -118z m3877 11 c26 -53 27 -60 25 -205 -2 -104 -8 -176 -22 -235 l-19 -85
-1 53 c-2 111 -39 416 -67 557 l-6 30 31 -30 c17 -16 44 -54 59 -85z m-1876
-115 c38 -28 56 -63 73 -141 53 -233 187 -491 340 -653 160 -170 444 -264 805
-264 170 0 259 16 368 68 41 19 75 35 77 35 1 0 5 -44 9 -97 4 -54 14 -160 22
-237 l14 -138 -28 -37 c-16 -20 -34 -52 -42 -71 -41 -107 -123 -240 -149 -240
-5 0 -12 24 -16 53 -4 28 -15 87 -26 130 -41 165 -93 237 -170 237 -51 0 -75
-13 -94 -50 -22 -43 -19 -86 15 -182 74 -211 61 -421 -39 -634 -94 -200 -247
-356 -439 -447 -58 -28 -80 -32 -162 -35 -79 -3 -128 3 -299 37 -112 22 -206
43 -210 46 -3 3 -7 50 -9 104 l-4 99 30 7 c41 8 214 113 282 169 192 160 295
391 262 588 -35 210 -186 360 -424 420 -76 19 -101 20 -288 15 -240 -7 -312
-20 -428 -78 -336 -165 -377 -572 -89 -875 94 -99 284 -231 360 -249 26 -7 27
-9 27 -74 0 -36 -3 -82 -6 -102 l-6 -37 -187 -38 c-150 -31 -208 -38 -301 -39
-110 0 -118 2 -184 33 -258 122 -461 391 -511 677 -26 149 -17 254 36 406 16
48 29 102 29 120 0 70 -66 130 -127 114 -42 -10 -98 -74 -123 -140 -23 -62
-60 -222 -60 -262 0 -13 -4 -23 -9 -23 -27 0 -110 132 -151 240 -7 19 -26 52
-42 72 l-29 38 15 142 c8 79 18 187 22 241 4 53 8 97 10 97 1 0 29 -13 61 -30
128 -65 302 -89 509 -70 328 30 562 125 696 282 138 162 259 400 312 611 26
105 49 146 98 171 45 23 144 18 180 -9z m128 -1460 c261 -81 326 -279 163
-495 -82 -110 -287 -246 -387 -257 -34 -4 -57 3 -136 43 -216 108 -378 341
-339 488 29 113 134 190 314 232 81 19 309 12 385 -11z m1603 -730 c447 -900
699 -1877 789 -3065 17 -218 17 -984 0 -1200 -69 -902 -231 -1673 -500 -2381
-101 -264 -274 -634 -326 -696 -51 -61 -59 -117 -22 -166 60 -80 149 -296 167
-406 17 -103 1 -169 -55 -226 -68 -67 -169 -82 -321 -46 -291 70 -680 345
-934 661 -133 166 -117 27 -130 1090 -13 1032 -28 1866 -40 2220 -9 252 -15
284 -63 307 -51 26 -103 19 -140 -18 l-31 -31 7 -501 c7 -577 32 -1968 41
-2354 l7 -261 -23 -13 c-56 -29 -335 -27 -458 5 -36 9 -66 18 -68 20 -2 2 1
219 7 482 11 528 26 1389 36 2129 l7 480 -27 32 c-48 57 -134 52 -178 -10 -21
-29 -22 -44 -30 -311 -10 -409 -26 -1312 -39 -2266 l-11 -835 -31 -52 c-72
-123 -268 -331 -437 -466 -177 -142 -396 -264 -555 -308 -111 -32 -243 -32
-302 -1 -81 42 -120 128 -109 235 11 108 105 344 172 434 38 50 30 102 -26
171 -39 49 -192 367 -270 562 -608 1512 -737 3367 -355 5086 136 612 360 1245
620 1754 79 155 70 147 135 101 30 -21 68 -43 85 -48 26 -8 32 -18 55 -100
124 -431 539 -785 904 -771 l84 3 5 -38 c14 -104 161 -195 352 -216 109 -13
357 3 457 28 147 38 241 108 254 191 l7 40 92 0 c118 0 219 26 333 85 268 139
478 396 562 689 25 87 27 90 64 102 21 8 59 29 85 48 25 19 49 32 53 28 4 -4
49 -92 101 -197z m-1735 -665 c115 -17 212 -41 212 -51 0 -30 -204 -79 -332
-79 -117 0 -278 40 -278 70 0 12 52 26 174 45 55 9 107 20 115 25 9 5 22 7 29
5 7 -3 43 -9 80 -15z m2919 -3645 c450 -552 735 -1548 685 -2388 -20 -323 -17
-348 38 -388 14 -11 71 -27 134 -38 71 -13 133 -32 180 -54 192 -92 281 -264
212 -412 -73 -158 -292 -218 -581 -159 -67 14 -315 36 -1178 106 l-409 32 -40
80 -40 79 95 201 c52 110 122 266 155 346 317 765 528 1677 582 2515 6 94 13
185 16 204 l5 34 41 -39 c22 -22 69 -75 105 -119z m-5873 113 c3 -18 8 -85 11
-148 22 -417 106 -969 215 -1417 139 -570 303 -1032 544 -1536 l76 -158 -40
-79 c-29 -58 -46 -81 -63 -84 -12 -3 -173 -17 -357 -31 -566 -44 -1020 -84
-1135 -100 -292 -41 -389 -38 -498 13 -81 38 -123 74 -152 133 -54 106 -20
237 89 336 73 67 158 107 271 129 205 39 211 45 209 212 -9 654 -8 678 9 827
79 658 304 1289 612 1710 62 85 184 225 196 225 4 0 10 -15 13 -32z"/>
<path d="M6735 12666 c-171 -34 -342 -134 -391 -228 -37 -72 4 -155 81 -164
42 -5 54 1 167 79 170 118 413 124 591 14 42 -26 63 -32 105 -32 48 0 57 4 83
33 49 55 35 134 -33 185 -128 96 -416 150 -603 113z"/>
<path d="M8598 12679 c-138 -19 -321 -107 -353 -170 -26 -49 -19 -97 19 -135
48 -48 94 -47 189 5 99 54 164 71 272 71 140 0 243 -35 368 -125 82 -58 160
-56 192 6 48 92 -30 204 -191 275 -139 62 -352 93 -496 73z"/>
<path d="M11627 11863 c-14 -14 -6 -19 23 -15 17 2 33 8 36 13 6 10 -49 12
-59 2z"/>
<path d="M11774 11835 c24 -18 39 -20 34 -2 -3 6 -15 13 -29 15 -23 2 -23 2
-5 -13z"/>
<path d="M7091 2330 c-32 -57 -20 -74 12 -19 29 49 32 59 19 59 -5 0 -18 -18
-31 -40z"/>
</g>
</svg>
